<svg id="Слой_1" enable-background="new 0 0 512 512" height="512" viewBox="0 0 512 512" width="512" xmlns="http://www.w3.org/2000/svg"><g id="_x31_"><g><path d="m216.232 301.133 241.459-75.307c36.401-11.353 52.722-53.663 33.375-86.52-19.347-32.857-64.263-39.11-91.848-12.787z" fill="#60ac18"/></g></g><g id="_x33_"><g><path d="m216.232 301.133 172.518-184.962c26.008-27.884 19.244-72.725-13.832-91.697-33.076-18.971-75.197-2.169-86.134 34.358z" fill="#60ac18"/></g></g><g id="_x35_"><g><path d="m216.232 301.133 214.89-133.401c32.395-20.111 37.595-65.16 10.633-92.122-26.962-26.962-72.012-21.762-92.122 10.633z" fill="#6ec61c"/></g></g><g id="_x37_"><g><path d="m379.198 302.379c-1.691-37.086-34.706-70.428-61.691-97.653-27.256-27.5-68.916-69.5-106.479-70.517-103.736-2.808-231.531 279.542-165.98 342.977 64.871 62.777 338.945-69.633 334.15-174.807z" fill="#f98e3c"/></g></g><g id="_x38_" fill="#b96a2d"><path d="m211.305 252.066c-1.932 0-3.864-.737-5.338-2.211l-29.248-29.248c-2.948-2.948-2.948-7.728 0-10.676 2.947-2.948 7.729-2.948 10.676 0l29.248 29.248c2.948 2.948 2.948 7.728 0 10.676-1.474 1.474-3.406 2.211-5.338 2.211z"/><path d="m251.054 359.127c-1.932 0-3.864-.736-5.338-2.211l-29.248-29.248c-2.948-2.948-2.948-7.728 0-10.676 2.947-2.949 7.729-2.949 10.676 0l29.248 29.248c2.948 2.948 2.948 7.728 0 10.676-1.474 1.475-3.406 2.211-5.338 2.211z"/><path d="m146.689 366.803c-1.932 0-3.864-.736-5.338-2.211l-29.248-29.248c-2.948-2.948-2.948-7.728 0-10.676 2.947-2.949 7.729-2.949 10.676 0l29.248 29.248c2.948 2.948 2.948 7.728 0 10.676-1.473 1.474-3.405 2.211-5.338 2.211z"/></g></svg>