<?xml version="1.0" encoding="utf-8"?>
<!-- Generator: Adobe Illustrator 24.0.0, SVG Export Plug-In . SVG Version: 6.00 Build 0)  -->
<svg version="1.1" xmlns="http://www.w3.org/2000/svg" xmlns:xlink="http://www.w3.org/1999/xlink" x="0px" y="0px"
	 viewBox="0 0 900 900" style="enable-background:new 0 0 900 900;" xml:space="preserve">
<style type="text/css">
	.st0{display:none;}
	.st1{fill:#C7CBC1;}
	.st2{fill:#F2EFEA;}
	.st3{fill:#E8CCB4;}
	.st4{fill:#D0CDC4;}
	.st5{fill:none;stroke:#000000;stroke-width:11;stroke-miterlimit:10;}
	.st6{fill:#FFFFFF;}
</style>
<g id="Layer_2_copy" class="st0">
	
		<image style="display:inline;overflow:visible;" width="595" height="595" xlink:href="z5906167898462_06138a19a0da2115f954f2dfc950906c.jpg"  transform="matrix(2.6373 0 0 2.6373 -347.9689 336.3563)">
	</image>
</g>
<g id="Layer_2" class="st0">
	
		<image style="display:inline;overflow:visible;" width="595" height="595" xlink:href="z5906167898462_06138a19a0da2115f954f2dfc950906c.jpg"  transform="matrix(2.6373 0 0 2.6373 -332.9673 -384.8493)">
	</image>
</g>
<g id="Layer_1">
	<ellipse class="st1" cx="446.4" cy="834.4" rx="265.8" ry="23.1"/>
	<path class="st2" d="M418,306.7c0,0,16.1-271.1,125.5-256c14.5,16.4,21.1,30.6,21.1,30.6s74.6-62.6,76.3,6
		c-8.5,30-138.9,219.4-138.9,219.4H418"/>
	<path class="st2" d="M305.3,815c0,0,92.6,46.4,129.9,14.2h87.4c0,0,118.1,37.2,123.3-114.5c-5-7.7-69.2,31.9-133.6,32
		s-102.4,15.4-239.6-35.3C260.6,707,249.4,781.9,305.3,815z"/>
	<path class="st2" d="M494.4,300.7c0,0,252.2,68.1,200,330.4c-35.5,61.7-66.5,93.6-148.7,110.6s-192.2-0.1-285.1-34.8
		c-100.6-88.6-68.8-279.8,35.7-343.3S434.1,296.9,494.4,300.7"/>
	<g id="Layer_3">
		<ellipse class="st3" cx="361" cy="620.6" rx="50.6" ry="46.5"/>
		<ellipse class="st3" cx="590.3" cy="610.6" rx="50.6" ry="46.5"/>
		<path class="st4" d="M327.1,338c0,0-185.1,226.3-6.4,385.1C285,713.4,50.7,614.4,327.1,338z"/>
		<path class="st5" d="M614,403.2c0,0,77.1,65,61.7,207.4"/>
		<path class="st4" d="M291.1,721.6c0,0,5.1,79.2,108,117.8c-32.5,0-151.1-9-138.5-132.4C291.1,721.6,291.1,721.6,291.1,721.6z"/>
		<path class="st4" d="M448.1,297.7c0,0,5.1-62.4,30.9-97.1c-8.9,29.6-22,83.3-18.1,97.1C464.9,311.5,448.1,297.7,448.1,297.7z"/>
		<path class="st4" d="M494.4,300.7c0,0,30.7-56.9,49.1-93.4c-22.6,23.3-46.3,77.3-58.5,84.7C472.8,299.5,494.4,300.7,494.4,300.7z"
			/>
	</g>
	<g>
		<g>
			<path d="M568.5,67.7c9.7-9.1,19.9-15.9,32.6-18.6c22.8-4.7,43.6,6.4,49.4,26.7c3,10.3,2.4,20.8-2.3,30.3
				c-5.5,11-11.6,21.7-18.8,31.6c-22.6,30.7-46.4,60.6-68.7,91.5c-16.5,22.9-29.5,47.9-40.7,74c0.8,0.4,1.4,0.9,2.1,1.2
				c83.8,26.1,139.4,81.9,170.3,163c14.5,38,21.3,77.6,19.6,118.5c-1.6,37.8-11.5,72.6-37.6,101.3c-5.2,5.8-10.9,11.3-17,16.1
				c-6.2,4.9-8,10-6,17.8c6.4,25.5,4.2,50.3-8.1,73.8c-14.7,28-38.9,43.4-68.9,50.8c-13.3,3.3-26.7,6.1-40.5,2.9
				c-1.9-0.5-4.1-0.8-5.6-1.8c-6.8-4.7-14.5-5.6-22.4-5.6c-22.1,0-44.3-0.1-66.4,0c-1.9,0-4.1,1.2-5.7,2.4c-6.4,4.9-13.7,8-21.6,8.1
				c-34.4,0.8-67.9-4-99.2-18.7c-41.6-19.5-62.8-59-57.2-104.6c0.2-2,0.3-4,0.7-6c1.9-9.4-1.5-16.5-9-22.2
				c-18.6-14.1-33.4-31.5-43.6-52.6c-9.5-19.6-14.3-40.5-15.6-62.1c-7.6-132.5,79.3-228.2,153.9-264.9c18.7-9.2,38.1-16.6,58.7-20.5
				c7-1.3,8.2-2.6,8.5-10c1.7-41.6,7.9-82.5,19.8-122.4c10.5-35.5,26.4-68.3,51-96.3c11.8-13.4,25.5-23.8,43.4-27.9
				C540.5,39.6,562.2,46.7,568.5,67.7z M464.1,741.7c29.8-2.2,62.7-4.6,95.5-7.2c2.5-0.2,5.5-1.1,7.3-2.8
				c9.6-9.2,21.6-13.4,33.8-17.7c48.4-17.1,77.6-51.5,89.5-101c6-25.2,4.6-50.6,0.9-76c-8.9-61.1-34.1-114.3-78.5-157.5
				c-69.2-67.3-150.3-83.2-240.5-51.6c-41.6,14.6-74.8,42.8-102.9,76.2c-44.2,52.4-66.6,113-62,181.9c2.3,33.9,15.7,63.9,39.6,88.5
				c25.3,26.1,57.3,39.3,92.1,46.9c15.8,3.4,31.8,5.8,46,14.2c1.4,0.8,3.2,1,4.8,1.2C413.4,738.4,437.1,740,464.1,741.7z
				 M427.9,294.7c10,0,19.3-0.3,28.5,0.1c5.3,0.2,7.1-1.9,8.3-6.8c4.8-20,9.5-40.1,15.4-59.9c15.2-50.9,36.2-99,70.6-140.4
				c1-1.2,1.8-2.9,1.9-4.5c0.7-9.2-6.8-19.1-15.9-21c-8.2-1.7-15.8,0.7-22.2,5.4c-7,5.2-13.8,11.1-19.8,17.5
				c-20.1,21.3-32.7,47.1-42.7,74.4c-11.1,30.5-17.2,62.2-20.8,94.3C429.8,267.2,429,280.6,427.9,294.7z M632.4,91.4
				c0.4-16.8-11-26.9-25.3-23.7c-5.7,1.3-11.5,3.8-16.2,7.3c-7.3,5.5-14.1,11.8-20.2,18.6c-18.3,20.5-32.6,43.8-44.6,68.4
				c-20.3,41.5-34,85.2-42.5,130.6c-0.3,1.3,1.1,3.8,2.3,4.4c8.1,4,13.6,1.6,18.2-7.9c20.1-41.2,44.5-79.6,72.3-115.9
				c15.3-19.9,30.8-39.8,46.2-59.7C628.1,106.3,632.4,98.7,632.4,91.4z M423.4,829.6c0.7-3.8,1.5-6.3,1.5-8.8
				c-0.2-20.8-7.5-38.6-22.8-53c-15.1-14.2-33.8-20.8-53.5-25.2c-23.7-5.2-47.8-9-69.6-20.4c-3.5-1.8-4.9-0.1-5.3,3.2
				c-1.4,11.8-1.2,23.6,2,35.2c7.8,28.1,27.1,45.9,52.5,57.9c18.2,8.6,37.9,10.9,57.6,13.2c2.5,0.3,5.1,0,7.6,0
				c-3.5-3.5-7.2-5.7-10.5-8.3c-1.2-0.9-2.7-3.4-2.3-4.1c1-1.6,3-3.4,4.7-3.6c2.1-0.2,4.6,0.7,6.5,1.9c3.4,2.1,6.4,4.7,9.7,7
				c1.6,1.2,3.4,2.2,5.1,3.3c0.3-0.3,0.5-0.7,0.8-1c-1.5-1.6-3.4-3.1-4.5-5c-0.9-1.5-2-4.5-1.4-5c1.4-1.4,4.2-2.7,5.8-2.2
				c2.8,0.9,5.5,3,7.7,5.1C417.7,822.5,419.9,825.6,423.4,829.6z M558.2,828.1c0.1,0.4,0.2,0.8,0.3,1.1c2.7-0.4,5.4-0.4,8-1.2
				c6.3-2,12.7-3.9,18.8-6.5c36.6-15.5,56.7-53.4,49.3-92.4c-1.3-6.7-2.2-7.2-8.6-4.7c-11.3,4.4-22.7,8.6-33.9,13.3
				c-32,13.4-52.9,36.3-59.5,70.9c-0.9,4.6-0.6,9.5-0.8,14.2c4.6-3.5,7.6-7.4,11.3-10.3c1.8-1.4,5-0.9,7.5-1.3c-0.3,2-0.2,4.2-1.1,6
				c-1.3,2.7-3.2,5.1-4.9,7.7c3.1-1.3,5-3.4,7.4-5c4.5-3,9.2-6,14-8.5c2.9-1.5,6-0.5,6.9,2.7c0.4,1.4-1.3,4.1-2.8,5.3
				C566.4,822.6,562.2,825.2,558.2,828.1z M420.5,757.9c4.6,6.8,9.6,13.1,13.3,20c6.3,11.9,9.1,24.9,10.2,38.3
				c0.5,6.2,1,6.8,7.2,6.8c18,0,36,0,53.9,0c7,0,7.3-0.5,7.9-7.7c1.9-21.3,8.5-40.9,21.8-58c0.6-0.8,1-1.8,1.9-3.3
				C497.4,759.2,458.7,759.6,420.5,757.9z"/>
			<path d="M583,574.3c0,7,0.1,14,0,21c-0.2,13.1-10.4,23.2-23.3,23.1c-13-0.1-21.7-9.1-21.8-22.8c-0.1-12.8-0.3-25.7,0.1-38.5
				c0.2-4.8,1.4-9.9,3.4-14.4c4.2-9.5,14.2-14.6,23.1-12.6c9.9,2.2,18,11.6,18.3,21.7C583.1,559.3,583,566.8,583,574.3
				C583,574.3,583,574.3,583,574.3z M561.5,589.4c0-4.1-3.5-7.5-7.7-7.5c-4.8,0-8.2,3.3-8.2,8c0,4.5,3.3,7.7,7.9,7.6
				C557.7,597.4,561.5,593.6,561.5,589.4z"/>
			<path d="M411.5,581.9c0,6.5,0.2,13,0,19.5c-0.3,9.3-4.6,16.6-13.3,19.9c-9,3.4-18.1,1.8-25.3-4.4c-3-2.6-5.6-7.6-5.8-11.6
				c-0.6-15.8-0.6-31.6,0.2-47.4c0.6-11.1,10.4-19,21.4-19.1c11.2,0,21.1,8.2,22.3,19.6c0.8,7.7,0.1,15.6,0.1,23.4
				C411.2,581.9,411.4,581.9,411.5,581.9z M374.3,598.2c0,4.3,3.2,7.5,7.5,7.6c4.4,0,7.9-3.8,7.9-8.5c0-3.9-2.9-5.9-8.2-5.9
				C376.8,591.3,374.3,593.7,374.3,598.2z"/>
			<path d="M505.9,635.8c0.4,9.1-1,17.9-5.3,26.1c-4.6,8.8-11.9,13.1-22,12.7c-9.8-0.4-16.7-5-20.5-14c-4.8-11.2-7.7-22.7-5.3-35
				c0.9-4.3,3.4-6.7,7.9-6.9c5-0.2,7.9,2.2,8.3,7.3c0.5,5.8,0.5,11.7,1.1,17.4c0.4,3.6,0.8,7.6,2.7,10.4c1.5,2.3,5.2,4.2,8.1,4.4
				c1.7,0.1,4.6-3.1,5.3-5.4c1.5-5,2-10.4,2.7-15.6c0.5-3.8,0.6-7.6,1-11.4c0.5-4.5,3.1-7,7.6-6.9c4.6,0,7.7,2.4,8.3,7
				C506.3,629.2,505.9,632.5,505.9,635.8z"/>
			<path d="M476.5,580.8c3.9,1.2,8,2,11.7,3.8c1.9,0.9,4,3.7,4,5.5c-0.1,2.2-1.9,5.2-3.9,6.3c-8.6,4.6-17.5,3-26-0.5
				c-1.4-0.6-2.9-3.7-2.6-5.3c0.5-2.3,2.1-5.2,4-6.1C467.6,582.6,472,582,476.5,580.8z"/>
			<path class="st6" d="M561.5,589.4c0,4.2-3.8,8-7.9,8c-4.7,0.1-8-3.1-7.9-7.6c0-4.8,3.4-8,8.2-8
				C558.1,581.9,561.6,585.4,561.5,589.4z"/>
			<path class="st6" d="M374.3,598.2c0-4.5,2.6-6.9,7.3-6.9c5.3,0,8.1,2.1,8.2,5.9c0,4.7-3.5,8.5-7.9,8.5
				C377.5,605.8,374.2,602.5,374.3,598.2z"/>
		</g>
	</g>
</g>
</svg>
