<?xml version="1.0" encoding="utf-8"?>
<!-- Generator: Adobe Illustrator 24.0.0, SVG Export Plug-In . SVG Version: 6.00 Build 0)  -->
<svg version="1.1" id="Layer_1" xmlns="http://www.w3.org/2000/svg" xmlns:xlink="http://www.w3.org/1999/xlink" x="0px" y="0px"
	 viewBox="0 0 900 900" style="enable-background:new 0 0 900 900;" xml:space="preserve">
<style type="text/css">
	.st0{display:none;}
	.st1{fill:#C7CBC1;}
	.st2{fill:#F2EFEA;}
	.st3{fill:#E8CCB4;}
	.st4{fill:#D0CDC4;}
	.st5{fill:none;stroke:#000000;stroke-width:11;stroke-miterlimit:10;}
	.st6{fill:#FFFFFF;}
</style>
<g id="Layer_2_copy" class="st0">
	
		<image style="display:inline;overflow:visible;enable-background:new    ;" width="595" height="595" xlink:href="z5906167898462_06138a19a0da2115f954f2dfc950906c.jpg"  transform="matrix(2.6373 0 0 2.6373 -347.9689 336.3563)">
	</image>
</g>
<g id="Layer_2_1_" class="st0">
	
		<image style="display:inline;overflow:visible;enable-background:new    ;" width="595" height="595" xlink:href="z5906167898462_06138a19a0da2115f954f2dfc950906c.jpg"  transform="matrix(2.6373 0 0 2.6373 -332.9673 -384.8493)">
	</image>
</g>
<g id="Layer_1_1_">
	<ellipse class="st1" cx="446.5" cy="834.4" rx="265.8" ry="23.1"/>
	<path class="st2" d="M474.9,306.7h-84c0,0-130.4-189.4-138.9-219.4c1.7-68.6,76.3-6,76.3-6s6.6-14.2,21.1-30.6
		C458.8,35.6,474.9,306.7,474.9,306.7"/>
	<path class="st2" d="M620.2,711.4C483,762.1,445,746.8,380.6,746.7S252,707,247,714.7c5.2,151.7,123.3,114.5,123.3,114.5h87.4
		C495,861.4,587.6,815,587.6,815C643.5,781.9,632.3,707,620.2,711.4z"/>
	<path class="st2" d="M398.5,300.7c60.3-3.8,93.6-0.6,198.1,62.9s136.3,254.7,35.7,343.3c-92.9,34.7-202.9,51.8-285.1,34.8
		S234,692.8,198.5,631.1C146.3,368.8,398.5,300.7,398.5,300.7"/>
	<g id="Layer_3">
		<ellipse class="st3" cx="531.9" cy="620.6" rx="50.6" ry="46.5"/>
		<ellipse class="st3" cx="302.6" cy="610.6" rx="50.6" ry="46.5"/>
		<path class="st4" d="M572.2,723.1c178.7-158.8-6.4-385.1-6.4-385.1C842.2,614.4,607.9,713.4,572.2,723.1z"/>
		<path class="st5" d="M217.2,610.6c-15.4-142.4,61.7-207.4,61.7-207.4"/>
		<path class="st4" d="M632.3,707c12.6,123.4-106,132.4-138.5,132.4c102.9-38.6,108-117.8,108-117.8S601.8,721.6,632.3,707z"/>
		<path class="st4" d="M432,297.7c3.9-13.8-9.2-67.5-18.1-97.1c25.8,34.7,30.9,97.1,30.9,97.1S428,311.5,432,297.7z"/>
		<path class="st4" d="M407.9,292c-12.2-7.4-35.9-61.4-58.5-84.7c18.4,36.5,49.1,93.4,49.1,93.4S420.1,299.5,407.9,292z"/>
	</g>
	<g>
		<g>
			<path d="M369.3,43.5c17.9,4.1,31.6,14.5,43.4,27.9c24.6,28,40.5,60.8,51,96.3c11.9,39.9,18.1,80.8,19.8,122.4
				c0.3,7.4,1.5,8.7,8.5,10c20.6,3.9,40,11.3,58.7,20.5c74.6,36.7,161.5,132.4,153.9,264.9c-1.3,21.6-6.1,42.5-15.6,62.1
				c-10.2,21.1-25,38.5-43.6,52.6c-7.5,5.7-10.9,12.8-9,22.2c0.4,2,0.5,4,0.7,6c5.6,45.6-15.6,85.1-57.2,104.6
				c-31.3,14.7-64.8,19.5-99.2,18.7c-7.9-0.1-15.2-3.2-21.6-8.1c-1.6-1.2-3.8-2.4-5.7-2.4c-22.1-0.1-44.3,0-66.4,0
				c-7.9,0-15.6,0.9-22.4,5.6c-1.5,1-3.7,1.3-5.6,1.8c-13.8,3.2-27.2,0.4-40.5-2.9c-30-7.4-54.2-22.8-68.9-50.8
				c-12.3-23.5-14.5-48.3-8.1-73.8c2-7.8,0.2-12.9-6-17.8c-6.1-4.8-11.8-10.3-17-16.1c-26.1-28.7-36-63.5-37.6-101.3
				c-1.7-40.9,5.1-80.5,19.6-118.5c30.9-81.1,86.5-136.9,170.3-163c0.7-0.3,1.3-0.8,2.1-1.2c-11.2-26.1-24.2-51.1-40.7-74
				c-22.3-30.9-46.1-60.8-68.7-91.5c-7.2-9.9-13.3-20.6-18.8-31.6c-4.7-9.5-5.3-20-2.3-30.3c5.8-20.3,26.6-31.4,49.4-26.7
				c12.7,2.7,22.9,9.5,32.6,18.6C330.7,46.7,352.4,39.6,369.3,43.5z M503.2,736.8c1.6-0.2,3.4-0.4,4.8-1.2
				c14.2-8.4,30.2-10.8,46-14.2c34.8-7.6,66.8-20.8,92.1-46.9c23.9-24.6,37.3-54.6,39.6-88.5c4.6-68.9-17.8-129.5-62-181.9
				c-28.1-33.4-61.3-61.6-102.9-76.2c-90.2-31.6-171.3-15.7-240.5,51.6c-44.4,43.2-69.6,96.4-78.5,157.5c-3.7,25.4-5.1,50.8,0.9,76
				c11.9,49.5,41.1,83.9,89.5,101c12.2,4.3,24.2,8.5,33.8,17.7c1.8,1.7,4.8,2.6,7.3,2.8c32.8,2.6,65.7,5,95.5,7.2
				C455.8,740,479.5,738.4,503.2,736.8z M461.7,253.8c-3.6-32.1-9.7-63.8-20.8-94.3c-10-27.3-22.6-53.1-42.7-74.4
				c-6-6.4-12.8-12.3-19.8-17.5c-6.4-4.7-14-7.1-22.2-5.4c-9.1,1.9-16.6,11.8-15.9,21c0.1,1.6,0.9,3.3,1.9,4.5
				c34.4,41.4,55.4,89.5,70.6,140.4c5.9,19.8,10.6,39.9,15.4,59.9c1.2,4.9,3,7,8.3,6.8c9.2-0.4,18.5-0.1,28.5-0.1
				C463.9,280.6,463.1,267.2,461.7,253.8z M270.3,113.5c15.4,19.9,30.9,39.8,46.2,59.7c27.8,36.3,52.2,74.7,72.3,115.9
				c4.6,9.5,10.1,11.9,18.2,7.9c1.2-0.6,2.6-3.1,2.3-4.4c-8.5-45.4-22.2-89.1-42.5-130.6c-12-24.6-26.3-47.9-44.6-68.4
				c-6.1-6.8-12.9-13.1-20.2-18.6c-4.7-3.5-10.5-6-16.2-7.3c-14.3-3.2-25.7,6.9-25.3,23.7C260.5,98.7,264.8,106.3,270.3,113.5z
				 M477.9,819.8c2.2-2.1,4.9-4.2,7.7-5.1c1.6-0.5,4.4,0.8,5.8,2.2c0.6,0.5-0.5,3.5-1.4,5c-1.1,1.9-3,3.4-4.5,5
				c0.3,0.3,0.5,0.7,0.8,1c1.7-1.1,3.5-2.1,5.1-3.3c3.3-2.3,6.3-4.9,9.7-7c1.9-1.2,4.4-2.1,6.5-1.9c1.7,0.2,3.7,2,4.7,3.6
				c0.4,0.7-1.1,3.2-2.3,4.1c-3.3,2.6-7,4.8-10.5,8.3c2.5,0,5.1,0.3,7.6,0c19.7-2.3,39.4-4.6,57.6-13.2c25.4-12,44.7-29.8,52.5-57.9
				c3.2-11.6,3.4-23.4,2-35.2c-0.4-3.3-1.8-5-5.3-3.2c-21.8,11.4-45.9,15.2-69.6,20.4c-19.7,4.4-38.4,11-53.5,25.2
				c-15.3,14.4-22.6,32.2-22.8,53c0,2.5,0.8,5,1.5,8.8C473,825.6,475.2,822.5,477.9,819.8z M322.8,819.4c-1.5-1.2-3.2-3.9-2.8-5.3
				c0.9-3.2,4-4.2,6.9-2.7c4.8,2.5,9.5,5.5,14,8.5c2.4,1.6,4.3,3.7,7.4,5c-1.7-2.6-3.6-5-4.9-7.7c-0.9-1.8-0.8-4-1.1-6
				c2.5,0.4,5.7-0.1,7.5,1.3c3.7,2.9,6.7,6.8,11.3,10.3c-0.2-4.7,0.1-9.6-0.8-14.2c-6.6-34.6-27.5-57.5-59.5-70.9
				c-11.2-4.7-22.6-8.9-33.9-13.3c-6.4-2.5-7.3-2-8.6,4.7c-7.4,39,12.7,76.9,49.3,92.4c6.1,2.6,12.5,4.5,18.8,6.5
				c2.6,0.8,5.3,0.8,8,1.2c0.1-0.3,0.2-0.7,0.3-1.1C330.7,825.2,326.5,822.6,322.8,819.4z M356.2,754c0.9,1.5,1.3,2.5,1.9,3.3
				c13.3,17.1,19.9,36.7,21.8,58c0.6,7.2,0.9,7.7,7.9,7.7c17.9,0,35.9,0,53.9,0c6.2,0,6.7-0.6,7.2-6.8c1.1-13.4,3.9-26.4,10.2-38.3
				c3.7-6.9,8.7-13.2,13.3-20C434.2,759.6,395.5,759.2,356.2,754z"/>
			<path d="M309.9,574.3c0-7.5-0.1-15,0.2-22.5c0.3-10.1,8.4-19.5,18.3-21.7c8.9-2,18.9,3.1,23.1,12.6c2,4.5,3.2,9.6,3.4,14.4
				c0.4,12.8,0.2,25.7,0.1,38.5c-0.1,13.7-8.8,22.7-21.8,22.8c-12.9,0.1-23.1-10-23.3-23.1C309.8,588.3,309.9,581.3,309.9,574.3
				L309.9,574.3z M339.4,597.5c4.6,0.1,7.9-3.1,7.9-7.6c0-4.7-3.4-8-8.2-8c-4.2,0-7.7,3.4-7.7,7.5
				C331.4,593.6,335.2,597.4,339.4,597.5z"/>
			<path d="M481.8,581.8c0-7.8-0.7-15.7,0.1-23.4c1.2-11.4,11.1-19.6,22.3-19.6c11,0.1,20.8,8,21.4,19.1c0.8,15.8,0.8,31.6,0.2,47.4
				c-0.2,4-2.8,9-5.8,11.6c-7.2,6.2-16.3,7.8-25.3,4.4c-8.7-3.3-13-10.6-13.3-19.9c-0.2-6.5,0-13,0-19.5
				C481.5,581.9,481.7,581.9,481.8,581.8z M511.4,591.4c-5.3,0-8.2,2-8.2,5.9c0,4.7,3.5,8.5,7.9,8.5c4.3-0.1,7.5-3.3,7.5-7.6
				C518.6,593.7,516.1,591.3,511.4,591.4z"/>
			<path d="M387.1,625.9c0.6-4.6,3.7-7,8.3-7c4.5-0.1,7.1,2.4,7.6,6.9c0.4,3.8,0.5,7.6,1,11.4c0.7,5.2,1.2,10.6,2.7,15.6
				c0.7,2.3,3.6,5.5,5.3,5.4c2.9-0.2,6.6-2.1,8.1-4.4c1.9-2.8,2.3-6.8,2.7-10.4c0.6-5.7,0.6-11.6,1.1-17.4c0.4-5.1,3.3-7.5,8.3-7.3
				c4.5,0.2,7,2.6,7.9,6.9c2.4,12.3-0.5,23.8-5.3,35c-3.8,9-10.7,13.6-20.5,14c-10.1,0.4-17.4-3.9-22-12.7c-4.3-8.2-5.7-17-5.3-26.1
				C387,632.5,386.6,629.2,387.1,625.9z"/>
			<path d="M429.2,584.5c1.9,0.9,3.5,3.8,4,6.1c0.3,1.6-1.2,4.7-2.6,5.3c-8.5,3.5-17.4,5.1-26,0.5c-2-1.1-3.8-4.1-3.9-6.3
				c0-1.8,2.1-4.6,4-5.5c3.7-1.8,7.8-2.6,11.7-3.8C420.9,582,425.3,582.6,429.2,584.5z"/>
			<path class="st6" d="M339,581.8c4.8,0,8.2,3.2,8.2,8c0.1,4.5-3.2,7.7-7.9,7.6c-4.1,0-7.9-3.8-7.9-8
				C331.3,585.4,334.8,581.9,339,581.8z"/>
			<path class="st6" d="M511,605.7c-4.4,0-7.9-3.8-7.9-8.5c0.1-3.8,2.9-5.9,8.2-5.9c4.7,0,7.3,2.4,7.3,6.9
				C518.7,602.5,515.4,605.8,511,605.7z"/>
		</g>
	</g>
</g>
</svg>
